<?xml version="1.0" standalone="no"?><!DOCTYPE svg PUBLIC "-//W3C//DTD SVG 1.1//EN" "http://www.w3.org/Graphics/SVG/1.1/DTD/svg11.dtd"><svg t="1606177491681" class="icon" viewBox="0 0 1024 1024" version="1.1" xmlns="http://www.w3.org/2000/svg" p-id="4359" width="256" height="256" xmlns:xlink="http://www.w3.org/1999/xlink"><defs><style type="text/css"></style></defs><path d="M512.341333 114.915556a369.208889 369.208889 0 0 1 245.191111 93.582222l8.362667 7.395555c47.388444 43.008 122.083556 119.808 224.199111 230.4 31.573333 34.247111 32.711111 86.186667 3.413334 121.628445l-3.413334 3.868444-36.750222 39.822222c-89.6 96.142222-155.192889 162.474667-196.778667 198.883556a369.208889 369.208889 0 0 1-244.224 92.672 369.265778 369.265778 0 0 1-245.418666-93.696l-8.305778-7.395556c-47.331556-43.008-121.969778-119.751111-223.971556-230.229333a92.444444 92.444444 0 0 1-3.413333-121.742222l3.413333-3.811556 45.511111-49.038222C164.807111 306.744889 226.986667 243.882667 266.808889 208.668444A369.265778 369.265778 0 0 1 512.341333 114.915556z m0 69.575111a299.235556 299.235556 0 0 0-199.111111 76.231111l-7.964444 7.054222c-41.073778 37.376-105.528889 103.139556-192.398222 196.608l-26.851556 29.013333a23.096889 23.096889 0 0 0 0 31.345778l35.384889 38.115556c88.291556 94.776889 152.519111 159.857778 191.829333 194.56a299.235556 299.235556 0 0 0 199.111111 76.231111c73.386667 0 142.791111-26.908444 198.144-75.377778l7.964445-7.054222c41.358222-37.376 106.097778-103.367111 193.308444-197.290667l26.965334-29.127111a23.096889 23.096889 0 0 0 0-31.402667l-43.918223-47.217777c-83.968-89.941333-145.464889-152.064-183.523555-185.628445a299.235556 299.235556 0 0 0-198.940445-76.060444z m0 115.143111a209.066667 209.066667 0 0 1 208.668445 209.464889 209.066667 209.066667 0 0 1-208.668445 209.464889A209.066667 209.066667 0 0 1 303.786667 509.098667a209.066667 209.066667 0 0 1 208.611555-209.464889z m0 69.802666A139.377778 139.377778 0 0 0 373.248 509.155556a139.377778 139.377778 0 0 0 139.093333 139.605333 139.377778 139.377778 0 0 0 139.150223-139.605333 139.377778 139.377778 0 0 0-139.150223-139.662223z" fill="#FF813C" p-id="4360"></path></svg>