<svg t="1603857226186" class="icon" viewBox="0 0 1663 1024" version="1.1" xmlns="http://www.w3.org/2000/svg" p-id="8245" width="128" height="128"><path d="M603.241929 817.462059l-79.340794-95.208954s-15.868159 23.802238-59.568565 75.436724c-51.634485 63.472636-91.304883 87.274874-158.681589 87.274874-27.832247 0-55.538556-7.934079-79.340795-15.868159h-4.030008c4.030009 3.904071 4.030009 7.934079 4.030008 11.964088 0 11.83815-7.934079 19.898168-19.898167 19.898168-4.030009 0-7.934079 0-11.964088-4.030009l-7.93408 7.934079c4.030009 4.030009 4.030009 7.934079 4.030009 11.964089 0 11.964088-7.934079 19.898168-19.898167 19.898167-4.030009 0-7.934079 0-11.964089-4.030009 3.904071 4.030009 3.904071 7.934079 3.904071 11.964089 0 11.964088-7.934079 19.898168-19.898167 19.898167-3.904071 0-7.934079 0-11.83815-4.030009l-7.93408 7.93408c51.634485 35.766326 115.107121 55.538556 182.483827 55.538556h7.93408c107.173041-4.030009 202.381995-59.568565 257.920551-142.81343 4.030009-7.934079 39.670397-51.634485 39.670397-51.634485l-7.682204-12.090026z m-313.459107 79.340794c7.934079 0 15.868159 7.934079 15.868159 15.868159s-7.934079 15.868159-15.868159 15.868159c-7.934079-4.030009-11.964088-11.964088-11.964088-19.898167 0.125938-7.934079 4.030009-11.83815 11.964088-11.838151z m-39.670397-7.934079c7.934079 0 15.868159 7.934079 15.868159 15.868159s-7.934079 15.868159-15.868159 15.868159-15.868159-7.934079-15.868159-15.868159c0-11.964088 3.904071-15.868159 15.868159-15.868159z m-63.472636 103.143033c-7.934079 0-15.868159-7.934079-15.868159-15.868159s7.934079-15.868159 15.868159-15.868159 15.868159 7.934079 15.868159 15.868159-7.934079 15.868159-15.868159 15.868159z m11.83815-51.634486c0-7.934079 7.934079-15.868159 15.868159-15.868159s15.868159 7.934079 15.868159 15.868159-7.934079 15.868159-15.868159 15.868159-15.868159-7.934079-15.868159-15.868159z m35.766327 67.502645c-7.934079 0-15.868159-7.934079-15.868159-15.868159s7.934079-15.868159 15.868159-15.868159 15.868159 7.934079 15.868159 15.868159-7.934079 15.868159-15.868159 15.868159z m11.83815-55.538557c0-7.934079 7.934079-15.868159 15.868159-15.868158s15.868159 7.934079 15.868159 15.868158-7.934079 15.868159-15.868159 15.868159-15.868159-7.934079-15.868159-15.868159z m39.796335 63.472636c-7.934079 0-15.868159-7.934079-15.868159-15.868159s7.934079-15.868159 15.868159-15.868159 15.868159 7.934079 15.868159 15.868159-7.934079 15.868159-15.868159 15.868159z m23.802239-43.700406c-7.934079 0-15.868159-7.934079-15.868159-15.868159s7.934079-15.868159 15.868159-15.868159 15.868159 7.934079 15.868158 15.868159c-4.030009 7.934079-7.934079 15.868159-15.868158 15.868159z m23.802238 43.700406c-7.934079 0-15.868159-7.934079-15.868159-15.868159s7.934079-15.868159 15.868159-15.868159 15.868159 7.934079 15.868159 15.868159-7.934079 15.868159-15.868159 15.868159z m-226.184233-79.340794c0 7.934079 4.030009 11.964088 7.934079 15.868158 4.030009 4.030009 11.964088 4.030009 15.868159 0 3.904071-3.904071 7.934079-7.934079 7.93408-15.868158s-4.030009-11.964088-7.93408-15.868159c-4.030009-3.904071-11.964088-3.904071-15.868159 0-4.030009 0-7.934079 7.934079-7.934079 15.868159z m31.736318-35.766327c0 7.934079 3.904071 11.83815 7.934079 15.868159 4.030009 3.904071 11.964088 3.904071 15.868159 0 4.030009-4.030009 7.934079-7.934079 7.934079-15.868159s-4.030009-11.964088-7.934079-15.868159c-3.904071-3.904071-11.83815-3.904071-15.868159 0-4.030009 4.030009-7.934079 11.964088-7.934079 15.868159z m31.736317-31.736318c0 7.934079 3.904071 11.964088 7.93408 15.868159 3.904071 4.030009 11.964088 4.030009 15.868159 0 4.030009-3.904071 7.934079-7.934079 7.934079-15.868159s-3.904071-11.964088-7.934079-15.868159c-3.904071-3.904071-11.964088-3.904071-15.868159 0-4.030009 4.030009-7.934079 11.964088-7.93408 15.868159z m-103.143033 31.736318c0 7.934079 4.030009 11.83815 7.93408 15.868159 4.030009 3.904071 11.964088 3.904071 15.868159 0 3.904071-4.030009 7.934079-7.934079 7.934079-15.868159s-4.030009-11.964088-7.934079-15.868159c-4.030009-3.904071-11.964088-3.904071-15.868159 0-4.030009 4.030009-7.934079 11.964088-7.93408 15.868159z m35.640389-35.640389c0 7.934079 3.904071 11.964088 7.93408 15.868159 3.904071 3.904071 11.964088 3.904071 15.868158 0 4.030009-4.030009 7.934079-7.934079 7.93408-15.868159s-3.904071-11.964088-7.93408-15.868158c-3.904071-4.030009-11.964088-4.030009-15.868158 0-3.904071 3.904071-7.934079 11.83815-7.93408 15.868158z m27.832247-39.670397c0 7.934079 3.904071 11.964088 7.93408 15.868159 3.904071 3.904071 11.964088 3.904071 15.868158 0 4.030009-4.030009 7.934079-7.934079 7.93408-15.868159s-3.904071-11.964088-7.93408-15.868159c-3.904071-4.030009-11.964088-4.030009-15.868158 0-7.934079 3.904071-7.934079 11.83815-7.93408 15.868159z m-23.802238-51.634485c0 4.030009 4.030009 11.964088 7.934079 11.964088 4.030009 4.030009 7.934079 4.030009 11.964088 4.030009 4.030009-4.030009 7.934079-7.934079 7.93408-11.964088s-3.904071-11.964088-7.93408-11.964089c-3.904071-3.904071-11.964088-3.904071-15.868159 0-0.125938 0-4.030009 3.904071-4.030008 7.93408z m-87.274874 47.604477c0 7.934079 7.934079 15.868159 15.868159 15.868159S51.760439 829.300209 51.760439 821.36613s-7.934079-15.868159-15.868159-15.868159c-11.964088 4.030009-15.868159 7.934079-15.868159 15.868159z m55.538556 4.030008c0 7.934079 7.934079 15.868159 15.868159 15.868159s15.868159-7.934079 15.868159-15.868159-7.934079-15.868159-15.868159-15.868159c-11.964088 0-15.868159 3.904071-15.868159 15.868159z m-35.766326 39.670397c0 7.934079 7.934079 15.868159 15.868158 15.868159s15.868159-7.934079 15.868159-15.868159-7.934079-15.868159-15.868159-15.868158-15.868159 7.934079-15.868158 15.868158z m15.868158-87.400811c0 7.934079 7.934079 15.868159 15.868159 15.868159s15.868159-7.934079 15.868159-15.868159c0-4.030009-3.904071-11.964088-7.934079-11.964088-4.030009-3.904071-11.964088-3.904071-15.868159 0-7.934079 0.125938-7.934079 4.030009-7.93408 11.964088z m-51.508547 0c0 4.030009 3.904071 7.934079 7.934079 11.964088H24.054129c3.904071-4.030009 7.934079-7.934079 7.93408-11.964088 0-7.934079-4.030009-11.964088-11.964088-11.964088-11.964088-3.904071-15.868159 4.030009-15.868159 11.964088z m726.031238-87.274874l43.700406-55.538556S849.32433 527.679252 944.533283 527.679252c35.766326 0 71.406715 11.964088 99.238962 31.736318l4.030009-7.934079c-4.030009-4.030009-4.030009-4.030009-4.030009-7.93408-4.030009-11.964088 4.030009-19.898168 15.868159-23.802238h7.93408l3.90407-7.93408c0-4.030009-3.904071-4.030009-3.90407-7.934079-4.030009-11.964088 3.904071-19.898168 15.868158-23.802238h7.93408l4.030009-7.93408c-4.030009-4.030009-4.030009-7.934079-7.93408-11.964088-4.030009-11.964088 3.904071-19.898168 15.868159-23.802238h11.964088l3.904071-7.93408c-47.604477-31.736318-107.173041-47.604477-170.645677-47.604476-111.077112 0-210.316074 59.568565-265.854631 146.843438l-35.766326 51.634486 39.670397 51.634485 43.574468 59.442627z m234.118313-170.519739c-7.934079 0-15.868159-7.934079-15.868159-15.868159s7.934079-15.868159 15.868159-15.868159 15.868159 7.934079 15.868159 15.868159-7.934079 15.868159-15.868159 15.868159z m55.538556 15.868158c-7.934079 0-15.868159-7.934079-15.868159-15.868158s7.934079-15.868159 15.868159-15.868159 15.868159 7.934079 15.868159 15.868159c0.125938 7.934079-7.808142 15.868159-15.868159 15.868158z m43.700406-111.20305c7.934079 0 15.868159 7.934079 15.868159 15.868159s-7.934079 15.868159-15.868159 15.868159-15.868159-7.934079-15.868159-15.868159c0-11.83815 7.934079-15.868159 15.868159-15.868159z m-3.904071 51.634486c0 7.934079-7.934079 15.868159-15.868159 15.868159s-15.868159-7.934079-15.868159-15.868159 7.934079-15.868159 15.868159-15.868159 15.868159 7.934079 15.868159 15.868159z m-43.700406-67.502644c7.934079 0 15.868159 7.934079 15.868159 15.868158s-7.934079 15.868159-15.868159 15.868159-15.868159-7.934079-15.868159-15.868159c0-11.83815 7.934079-15.868159 15.868159-15.868158z m-7.934079 55.538556c0 7.934079-7.934079 15.868159-15.868159 15.868159s-15.868159-7.934079-15.868159-15.868159 7.934079-15.868159 15.868159-15.868159 15.868159 7.934079 15.868159 15.868159z m-43.700406-63.472636c7.934079 0 15.868159 7.934079 15.868159 15.868159s-7.934079 15.868159-15.868159 15.868159-15.868159-7.934079-15.868159-15.868159c0-11.83815 7.934079-15.868159 15.868159-15.868159z m-11.83815 59.568565c0 7.934079-7.934079 15.868159-15.868159 15.868159s-15.868159-7.934079-15.868159-15.868159 7.934079-15.868159 15.868159-15.868159c11.83815 0 15.868159 7.934079 15.868159 15.868159z m-35.766327-63.472636c7.934079 0 15.868159 7.934079 15.868159 15.868159s-7.934079 15.868159-15.868159 15.868159-15.868159-7.934079-15.868159-15.868159 7.934079-15.868159 15.868159-15.868159z m186.513836 75.310786c0 7.934079 4.030009 11.964088 7.93408 15.868159 4.030009 4.030009 11.964088 4.030009 15.868159 0 3.904071-3.904071 7.934079-7.934079 7.934079-15.868159s-4.030009-11.964088-7.934079-15.868159c-4.030009-4.030009-11.964088-4.030009-15.868159 0-3.904071 4.030009-7.934079 7.934079-7.93408 15.868159zM1079.412634 507.907023c0 7.934079 4.030009 11.964088 7.934079 15.868158 3.904071 3.904071 11.964088 3.904071 15.868159 0 4.030009-4.030009 7.934079-7.934079 7.93408-15.868158s-3.904071-11.83815-7.93408-15.868159c-4.030009-4.030009-11.964088-4.030009-15.868159 0-3.904071 3.904071-7.934079 7.934079-7.934079 15.868159z m0 0" fill="#f6ca9d" p-id="8246"></path><path d="M1051.706325 547.57742c0 7.934079 4.030009 11.964088 7.934079 15.868159 4.030009 3.904071 11.964088 3.904071 15.868159 0 3.904071-4.030009 7.934079-7.934079 7.934079-15.868159s-4.030009-11.83815-7.934079-15.868159c-4.030009-4.030009-11.964088-4.030009-15.868159 0-4.030009 4.030009-7.934079 11.964088-7.934079 15.868159z m91.178944-43.700406c0 7.934079 4.030009 11.964088 7.93408 15.868159 4.030009 4.030009 11.964088 4.030009 15.868159 0 4.030009-3.904071 7.934079-7.934079 7.934079-15.868159s-4.030009-11.964088-7.934079-15.868159c-3.904071-3.904071-11.83815-3.904071-15.868159 0-3.904071 4.030009-7.934079 7.934079-7.93408 15.868159z m-27.706309 43.700406c0 7.934079 3.904071 11.964088 7.93408 15.868159 4.030009 3.904071 11.964088 3.904071 15.868159 0 4.030009-4.030009 7.934079-7.934079 7.934079-15.868159s-4.030009-11.83815-7.934079-15.868159c-3.904071-4.030009-11.964088-4.030009-15.868159 0-7.934079 4.030009-7.934079 11.964088-7.93408 15.868159z m-27.832247 39.670397c0 7.934079 3.904071 11.964088 7.93408 15.868159 3.904071 3.904071 11.964088 3.904071 15.868159 0 4.030009-4.030009 7.934079-7.934079 7.934079-15.868159s-3.904071-11.83815-7.934079-15.868159c-3.904071-4.030009-11.964088-4.030009-15.868159 0-7.934079 4.030009-7.934079 7.934079-7.93408 15.868159z m111.077113 0c0 7.934079 7.934079 15.868159 15.868158 15.868159s15.868159-7.934079 15.868159-15.868159-7.934079-15.868159-15.868159-15.868159-15.868159 7.934079-15.868158 15.868159z m-51.508548 4.030009c0 4.030009 3.904071 11.964088 7.93408 11.964088 3.904071 3.904071 11.83815 3.904071 15.868158 0 4.030009-4.030009 7.934079-7.934079 7.93408-11.964088s-3.904071-11.964088-7.93408-11.964088c-4.030009-3.904071-11.964088-3.904071-15.868158 0-4.030009 0-7.934079 4.030009-7.93408 11.964088z m0 0" fill="#f6ca9d" p-id="8247"></path><path d="M1174.621587 539.64334c0 4.030009 3.904071 11.964088 7.93408 11.964088 3.904071 4.030009 11.964088 4.030009 15.868159 0 4.030009-4.030009 7.934079-7.934079 7.934079-11.964088 0-3.904071-3.904071-11.964088-7.934079-11.964088-3.904071-3.904071-11.964088-3.904071-15.868159 0-3.904071 0.125938-7.934079 8.060017-7.93408 11.964088z m-71.406715 95.208954H952.467363l-23.802239 134.87935h178.579757c-27.832247 63.472636-91.304883 107.173041-162.711598 107.173042-51.634485 0-95.208953-19.898168-126.945271-51.634486L579.439691 527.80519c-55.538556-87.274874-154.777518-142.81343-265.854631-142.81343-39.670397 0-75.436724 7.934079-111.077112 19.898167l35.766326-130.975279h277.818719l31.736318-134.879351H131.101233L95.334907 277.818718l-91.304883 341.291355c0 4.030009-4.030009 7.934079-4.030009 15.868158h146.843439c27.832247-63.472636 87.274874-107.173041 158.681589-107.173041 67.502644 0 115.107121 35.766326 154.777518 91.304883l210.316075 249.986471c63.472636 91.304883 158.681589 154.777518 273.788709 154.777518 174.549748 0 317.489116-142.81343 317.489116-317.489115 0-23.802238-4.030009-47.604477-7.934079-71.406716H1103.214872z m436.500308-515.841102L1559.613347 0h-95.208953l-19.898168 123.0412h-123.0412l-11.964088 87.274874h123.0412l-19.898167 119.011192h95.208953l19.898168-123.0412h123.0412l11.964088-91.304883h-123.0412v4.030009z m0 0" fill="#f6ca9d" p-id="8248"></path><path d="M1285.6987 162.711598h-63.472636l-11.964088 83.370803h-87.274874l-11.964088 63.472635h83.370803l-11.964088 83.370803h63.472636l11.964088-83.370803h87.274874l7.934079-63.472635h-83.370803l15.994097-83.370803z m0 0" fill="#f6ca9d" p-id="8249"></path></svg>